<?xml version="1.0" encoding="UTF-8" standalone="no"?>
<!-- Generator: Adobe Illustrator 19.0.0, SVG Export Plug-In . SVG Version: 6.00 Build 0)  -->

<svg
   xmlns:dc="http://purl.org/dc/elements/1.1/"
   xmlns:cc="http://creativecommons.org/ns#"
   xmlns:rdf="http://www.w3.org/1999/02/22-rdf-syntax-ns#"
   xmlns:svg="http://www.w3.org/2000/svg"
   xmlns="http://www.w3.org/2000/svg"
   xmlns:sodipodi="http://sodipodi.sourceforge.net/DTD/sodipodi-0.dtd"
   xmlns:inkscape="http://www.inkscape.org/namespaces/inkscape"
   version="1.1"
   id="Capa_1"
   x="0px"
   y="0px"
   viewBox="0 0 296.664 296.664"
   style="enable-background:new 0 0 296.664 296.664;"
   xml:space="preserve"
   sodipodi:docname="cards.svg"
   inkscape:version="0.92.4 (5da689c313, 2019-01-14)"><metadata
   id="metadata47"><rdf:RDF><cc:Work
       rdf:about=""><dc:format>image/svg+xml</dc:format><dc:type
         rdf:resource="http://purl.org/dc/dcmitype/StillImage" /></cc:Work></rdf:RDF></metadata><defs
   id="defs45">
	
	
	
	
</defs><sodipodi:namedview
   pagecolor="#ffffff"
   bordercolor="#666666"
   borderopacity="1"
   objecttolerance="10"
   gridtolerance="10"
   guidetolerance="10"
   inkscape:pageopacity="0"
   inkscape:pageshadow="2"
   inkscape:window-width="1920"
   inkscape:window-height="1025"
   id="namedview43"
   showgrid="false"
   inkscape:zoom="0.79551276"
   inkscape:cx="148.332"
   inkscape:cy="148.332"
   inkscape:window-x="0"
   inkscape:window-y="27"
   inkscape:window-maximized="1"
   inkscape:current-layer="Capa_1" />
<path
   inkscape:connector-curvature="0"
   id="path2"
   d="M 58.355,226.748 V 69.414 c 0,-1.709 0.294,-3.391 0.526,-5.039 L 13.778,79.057 C 3.316,82.455 -2.42,93.797 0.979,104.258 l 48.639,149.633 c 2.738,8.428 10.639,13.816 19.075,13.816 2.035,0 4.109,-0.315 6.143,-0.975 l 12.796,-4.211 C 71.066,259.213 58.355,244.242 58.355,226.748 Z" /><polyline
   id="polyline4"
   points="122.688,28.957    122.688,29.207 122.7,29.207  "
   style="fill:none;stroke:#ffffff;stroke-width:0;stroke-linecap:round;stroke-linejoin:round" /><path
   inkscape:connector-curvature="0"
   id="path6"
   d="M 91.098,203.275 139.715,53.673 c 0.491,-1.512 1.078,-3.342 1.746,-4.342 H 94.688 c -11,0 -20.333,9.082 -20.333,20.082 v 157.334 c 0,11 9.333,20.584 20.333,20.584 h 15.969 C 94.061,239.332 85.361,220.932 91.098,203.275 Z" /><path
   inkscape:connector-curvature="0"
   id="path8"
   d="M 282.848,79.057 180.134,45.684 c -2.034,-0.662 -4.102,-0.975 -6.138,-0.975 -8.436,0 -16.326,5.387 -19.064,13.814 l -48.617,149.633 c -3.399,10.463 2.379,21.803 12.841,25.203 l 102.713,33.373 c 2.034,0.66 4.102,0.975 6.138,0.975 8.436,0 16.326,-5.389 19.064,-13.816 L 295.689,104.258 C 299.088,93.797 293.31,82.455 282.848,79.057 Z"
   sodipodi:nodetypes="ccsscccsccc" />
<g
   id="g12">
</g>
<g
   id="g14">
</g>
<g
   id="g16">
</g>
<g
   id="g18">
</g>
<g
   id="g20">
</g>
<g
   id="g22">
</g>
<g
   id="g24">
</g>
<g
   id="g26">
</g>
<g
   id="g28">
</g>
<g
   id="g30">
</g>
<g
   id="g32">
</g>
<g
   id="g34">
</g>
<g
   id="g36">
</g>
<g
   id="g38">
</g>
<g
   id="g40">
</g>
</svg>