<?xml version="1.0" encoding="utf-8"?>
<!-- Svg Vector Icons : http://www.onlinewebfonts.com/icon -->
<!DOCTYPE svg PUBLIC "-//W3C//DTD SVG 1.1//EN" "http://www.w3.org/Graphics/SVG/1.1/DTD/svg11.dtd">
<svg version="1.1" xmlns="http://www.w3.org/2000/svg" xmlns:xlink="http://www.w3.org/1999/xlink" x="0px" y="0px" viewBox="0 0 1000 1000" enable-background="new 0 0 1000 1000" xml:space="preserve">
<metadata> Svg Vector Icons : http://www.onlinewebfonts.com/icon </metadata>
<g><g transform="translate(0.000000,511.000000) scale(0.100000,-0.100000)"><path d="M510,4398.6c-46.9-71.3-57-73.3-128.4-24.5c-30.6,20.4-65.2,44.8-79.5,53c-22.4,12.2-189.5-203.8-189.5-246.5c0-10.2,539.9-379,1202.1-821.1c1173.6-786.5,1200.1-806.9,1202.1-872c0-36.7,16.3-79.5,36.7-95.8c18.3-16.3,727.4-542,1572.9-1165.4L5662.8,89.3L5699.5-33c30.6-97.8,32.6-138.5,16.3-207.8c-26.5-114.1-26.5-238.4,4.1-336.2c30.6-103.9,185.4-277.1,291.4-323.9c154.8-71.3,442.1-36.7,550.1,63.2c42.8,40.8,42.8,40.8,85.6-16.3c108-146.7,656.1-947.4,1299.9-1898.9c389.2-576.6,757.9-1118.6,817-1202.1c179.3-256.7,289.3-336.2,334.2-244.5c10.2,16.3,44.8,89.7,79.5,163c77.4,165,309.7,436,523.6,609.2c209.9,171.1,216,179.3,185.4,236.3c-14.3,26.5-277.1,287.3-584.8,582.7c-307.7,293.4-780.4,747.8-1049.3,1006.5s-639.8,595-825.2,743.7c-491,397.3-505.3,409.5-556.2,489c-26.5,38.7-63.2,108-79.5,154.9c-30.6,75.4-30.6,87.6-2,148.7c32.6,65.2,118.2,124.3,179.3,124.3c50.9,0,34.6,38.7-22.4,53c-28.5,8.1-91.7,8.1-140.6,4.1l-89.7-10.2l-14.2,83.5l-12.2,83.5L4911,1454.4C3346.2,2493.5,3111.9,2642.3,2971.3,2687.1c-136.5,44.8-285.2,136.5-1035,641.8c-480.9,321.9-988.2,664.2-1126.7,758L560.9,4258l40.8,59.1c50.9,71.3,50.9,95.8,2,122.3C550.7,4465.8,556.8,4467.9,510,4398.6z M6113.1-326.4c57.1-32.6,116.1-73.4,130.4-91.7c36.7-42.8,10.2-144.7-50.9-193.6c-26.5-20.4-48.9-44.8-48.9-53c0-26.5,150.8,12.2,220,55l69.3,42.8l48.9-59.1c26.5-32.6,46.9-71.3,42.8-87.6c-8.2-53-211.9-148.8-317.9-148.8c-148.7,0-295.4,97.8-346.4,234.3c-40.7,106,48.9,360.6,126.3,360.6C6001-267.3,6058.1-293.8,6113.1-326.4z"/><path d="M9387.3,4427.1l-44.8-30.6l40.8-59.1c22.4-30.6,40.7-65.2,40.7-75.4s-507.3-358.6-1124.7-774.2c-949.5-635.7-1151.2-762-1279.5-804.8c-124.3-42.8-305.6-152.8-961.7-586.8c-446.2-295.4-810.9-542-810.9-548.1c0-26.5,533.8-370.8,558.3-362.7c28.5,10.2,1585.2,1155.3,1648.3,1212.3c18.4,16.3,34.6,59.1,34.6,93.7c0,61.1,44.8,93.7,1202.1,868c660.2,442.1,1202.1,813,1202.1,821.1c0,40.7-167.1,258.8-189.5,246.5c-14.3-8.1-48.9-32.6-79.5-53c-71.3-48.9-89.6-46.9-132.4,24.5C9450.5,4469.9,9448.5,4469.9,9387.3,4427.1z"/><path d="M3770,576.2c-224.1-150.8-423.8-287.3-442.1-303.6c-22.4-18.3-36.7-59.1-36.7-99.8v-69.3l-89.6,10.2c-101.9,12.2-195.6-4.1-195.6-34.6c0-12.2,18.3-20.4,42.8-20.4c59.1,0,181.3-126.3,181.3-185.4c-2-73.4-75.4-224.1-148.7-301.5c-36.7-36.7-252.7-220.1-480.9-405.5c-228.2-185.4-515.5-440.1-641.8-564.4c-124.3-124.3-590.9-572.5-1035.1-994.3c-444.2-423.8-813-784.4-819.1-802.8c-18.3-44.8,18.3-97.8,126.3-175.2c122.3-91.7,444.2-421.8,529.8-548.1c34.6-50.9,81.5-136.5,99.8-189.5c48.9-130.4,89.6-154.8,163-99.8c85.6,63.2,163,171.2,953.5,1342.7c782.4,1155.3,1106.4,1632,1297.9,1901L3397.1-797l59.1-48.9c75.4-65.2,179.3-93.7,330.1-93.7c142.6,0,228.2,32.6,340.3,134.5c154.9,138.6,201.7,287.3,165,511.4c-20.4,114.1-18.3,158.9,6.1,258.8c18.3,65.2,48.9,130.4,67.2,146.7c20.4,14.3,116.1,85.6,213.9,154.8c97.8,71.3,175.2,134.5,173.2,142.6c-4.1,12.2-236.4,191.5-513.5,395.3l-61.1,44.8L3770,576.2z M4102.1-369.2c108-213.9,8.2-423.8-232.3-487c-105.9-28.5-252.6,12.2-348.4,93.7l-67.2,57.1l57,67.2l55,65.2l99.8-50.9c87.6-44.8,195.6-67.2,195.6-42.8c0,6.1-26.5,36.7-61.1,69.3c-99.8,99.8-85.6,161,57,252.7c63.2,40.8,134.5,73.3,156.9,71.3C4040.9-275.4,4071.5-310.1,4102.1-369.2z"/></g></g>
</svg>