<?xml version="1.0" encoding="UTF-8" standalone="no"?>
<!-- Svg Vector Icons : http://www.onlinewebfonts.com/icon -->

<svg
   xmlns:dc="http://purl.org/dc/elements/1.1/"
   xmlns:cc="http://creativecommons.org/ns#"
   xmlns:rdf="http://www.w3.org/1999/02/22-rdf-syntax-ns#"
   xmlns:svg="http://www.w3.org/2000/svg"
   xmlns="http://www.w3.org/2000/svg"
   xmlns:sodipodi="http://sodipodi.sourceforge.net/DTD/sodipodi-0.dtd"
   xmlns:inkscape="http://www.inkscape.org/namespaces/inkscape"
   version="1.1"
   x="0px"
   y="0px"
   viewBox="0 0 860.63531 982.96826"
   enable-background="new 0 0 1000 1000"
   xml:space="preserve"
   id="svg10"
   sodipodi:docname="sheriff.svg"
   inkscape:version="0.92.4 (5da689c313, 2019-01-14)"
   width="860.63531"
   height="982.96826"><defs
   id="defs14" /><sodipodi:namedview
   pagecolor="#ffffff"
   bordercolor="#666666"
   borderopacity="1"
   objecttolerance="10"
   gridtolerance="10"
   guidetolerance="10"
   inkscape:pageopacity="0"
   inkscape:pageshadow="2"
   inkscape:window-width="1920"
   inkscape:window-height="1025"
   id="namedview12"
   showgrid="false"
   inkscape:zoom="0.236"
   inkscape:cx="-340.87627"
   inkscape:cy="491.46436"
   inkscape:window-x="0"
   inkscape:window-y="27"
   inkscape:window-maximized="1"
   inkscape:current-layer="svg10" />
<metadata
   id="metadata2"> Svg Vector Icons : http://www.onlinewebfonts.com/icon <rdf:RDF><cc:Work
     rdf:about=""><dc:format>image/svg+xml</dc:format><dc:type
       rdf:resource="http://purl.org/dc/dcmitype/StillImage" /></cc:Work></rdf:RDF></metadata>
<g
   id="g8"
   style="fill:#000000;fill-opacity:1;stroke:#010101;stroke-width:3;stroke-miterlimit:4;stroke-dasharray:none;stroke-opacity:1"
   transform="translate(-69.689826,-8.496081)"><g
     transform="matrix(0.1,0,0,-0.1,0,511)"
     id="g6"
     style="fill:#000000;fill-opacity:1;stroke:#010101;stroke-width:30;stroke-miterlimit:4;stroke-dasharray:none;stroke-opacity:1"><path
       d="m 4848.9,4990 c -174.1,-54.4 -324.2,-200.2 -369.9,-361.2 -43.5,-156.7 -19.6,-337.3 60.9,-467.8 l 69.6,-113.2 -95.7,-178.4 c -54.4,-95.7 -258.9,-454.8 -452.6,-796.4 l -356.9,-620.1 -950.9,-6.5 -953.1,-4.4 -32.6,76.2 c -45.7,108.8 -178.4,250.2 -280.7,295.9 -115.3,54.4 -341.6,54.4 -456.9,0 -200.2,-89.2 -315.5,-274.2 -315.5,-502.6 0,-180.6 50,-289.4 185,-409.1 119.7,-104.5 226.3,-139.3 396,-132.7 l 117.5,6.5 476.5,-835.6 476.5,-833.4 -52.2,-89.2 c -28.3,-50 -241.5,-422.1 -474.4,-829 l -424.3,-739.8 -100.1,6.5 c -235,17.4 -467.8,-117.5 -554.9,-324.2 -58.8,-132.7 -63.1,-317.7 -15.2,-437.4 180.6,-430.8 789.9,-457 992.2,-45.7 l 54.4,113.1 H 2749 l 957.4,2.2 452.6,-792 c 248.1,-435.2 450.4,-796.4 450.4,-802.9 0,-8.7 -32.6,-58.8 -69.6,-113.1 -60.9,-87 -71.8,-121.8 -78.3,-258.9 -6.5,-106.6 2.2,-180.6 23.9,-237.2 128.4,-306.8 465.7,-435.2 761.6,-289.4 208.9,102.3 306.8,276.3 293.8,526.6 -6.5,137.1 -17.4,171.9 -78.3,258.9 -37,54.4 -69.6,104.4 -69.6,113.1 0,6.5 202.4,367.7 452.6,802.9 l 450.4,792 h 957.4 959.6 l 28.3,-78.3 c 15.2,-43.5 69.6,-121.8 121.9,-171.9 272,-274.2 742,-180.6 892.1,178.4 50,119.7 41.4,324.2 -19.6,454.8 -91.4,198 -319.8,326.4 -548.3,309 l -100.1,-6.5 -424.3,739.8 c -232.8,406.9 -446.1,779 -474.3,829 l -52.2,89.2 476.5,833.4 476.5,833.4 139.2,-4.3 c 171.9,-6.5 261.1,28.3 393.9,150.1 128.4,119.7 171.9,235 161,430.8 -10.9,191.5 -89.2,332.9 -243.7,426.5 -134.9,82.7 -352.5,104.4 -502.6,47.9 -106.6,-41.3 -254.6,-189.3 -302.5,-304.6 l -32.7,-78.4 -953.1,4.4 -950.9,6.5 -454.8,794.2 c -406.9,713.7 -450.4,798.6 -426.5,837.7 128.4,198 161,367.7 102.2,557 -76,256.8 -406.7,428.7 -670,348.2 z"
       id="path4"
       style="fill:#000000;fill-opacity:1;stroke:#010101;stroke-width:30;stroke-miterlimit:4;stroke-dasharray:none;stroke-opacity:1"
       inkscape:connector-curvature="0" /></g></g>
</svg>